<svg xmlns="http://www.w3.org/2000/svg" width="78.97" height="92" viewBox="0 0 78.97 92">
  <defs>
    <style>
      .cls-1 {
        fill: #fff;
        fill-rule: evenodd;
      }
    </style>
  </defs>
  <path id="services3.svg" class="cls-1" d="M1781.88,792.376a2.087,2.087,0,0,1-2.59,1.52L1765,790.043l-3.83,14.35a2.3,2.3,0,0,1-1.01,1.328,2.119,2.119,0,0,1-2.9-.8l-10.86-18.855a32.667,32.667,0,0,1-3.91.23,33.252,33.252,0,0,1-3.93-.23l-10.81,18.868a2.14,2.14,0,0,1-3.93-.536l-3.81-14.35L1705.7,793.9a2.125,2.125,0,0,1-2.61-1.52,2.033,2.033,0,0,1,.3-1.772l10.58-18.447a35.955,35.955,0,1,1,57.05,0L1781.6,790.6A2.06,2.06,0,0,1,1781.88,792.376Zm-72.27-3.992,11.29-3.036,0.05-.026a2.135,2.135,0,0,1,2.61,1.518l3.05,11.43,7.46-12.974a36.03,36.03,0,0,1-17-9.591l-0.13-.128Zm61.71-38.246a29.03,29.03,0,0,0-8.45-20.485,28.686,28.686,0,0,0-40.73,0A28.882,28.882,0,1,0,1771.32,750.138Zm-3.27,25.439-0.13.128a36.031,36.031,0,0,1-17.03,9.591l7.49,12.974,3.02-11.43a2.149,2.149,0,0,1,2.61-1.518l0.05,0.026,11.35,3.036Zm-10.41-10.218a21.534,21.534,0,1,1,0-30.465A21.638,21.638,0,0,1,1757.64,765.359Zm-3.04-27.416a17.1,17.1,0,0,0-24.24,0,17.295,17.295,0,0,0,0,24.367,17.1,17.1,0,0,0,24.24,0A17.295,17.295,0,0,0,1754.6,737.943ZM1741.26,759l-3.08-2.926L1732,750.22l3.09-2.926,6.17,5.852,9.65-9.143,3.09,2.926-9.65,9.143Z" transform="translate(-1703 -714)"/>
</svg>

