<svg xmlns="http://www.w3.org/2000/svg" width="47" height="36" data-prefix="im9rdgykx"><path d="M23.51-.009a10.29 10.29 0 0110.33 8.273 8.449 8.449 0 012.45-.356 8.546 8.546 0 015.89 2.288 7.431 7.431 0 01.19 10.814l1.98 1.85a8.688 8.688 0 011.99 2.754 7.967 7.967 0 01.67 3.263v2.317a2.943 2.943 0 01-.58 1.738 2.527 2.527 0 01-1.78 1.007 1.148 1.148 0 01-.18.01h-1.91v.64a1.475 1.475 0 01-1.52 1.423H6.02a1.486 1.486 0 01-1.56-1.423v-.64H2.55a1.087 1.087 0 01-.18-.01 2.506 2.506 0 01-1.78-1.007 2.943 2.943 0 01-.58-1.738v-2.317a7.967 7.967 0 01.67-3.263c.84-1.88 2.47-3.2 3.97-4.6A7.41 7.41 0 014.84 10.2a8.694 8.694 0 018.34-1.932A10.29 10.29 0 0123.51-.005zm0 33.165h4.7c0-2.154.01-4.319.01-6.475a.917.917 0 011.83 0v3.781h3.94a.789.789 0 00.08-.345v-3.029c0-4.086-2.9-5.976-5.74-8.64a11.029 11.029 0 01-9.64 0c-2.84 2.664-5.74 4.554-5.74 8.64v3.029a.789.789 0 00.08.345h3.94v-3.781a.912.912 0 011.82 0c0 2.156.01 4.321.01 6.475h4.71zm0-16.455a6.947 6.947 0 10-7.4-6.933 7.179 7.179 0 007.4 6.933zM7.53 33.156h4.43a2.839 2.839 0 01-1.38-1.006 3.4 3.4 0 01-.68-2.033v-3.029a9.858 9.858 0 01.65-3.608 8.7 8.7 0 01-3.43-.762c-1.26 1.179-2.93 2.4-3.63 3.984a5.339 5.339 0 00-.43 2.175v2.216H5.7v-2.521a.917.917 0 011.83 0v4.584zm5.66-21.823a4.47 4.47 0 00-.88-.345 5.668 5.668 0 00-1.58-.224A5.426 5.426 0 007 12.208a4.715 4.715 0 000 6.972 5.422 5.422 0 003.73 1.444 5.57 5.57 0 001.69-.244 49.312 49.312 0 013.78-3.619 9.935 9.935 0 01-3.01-5.428zm26.3 21.823v-4.584a.917.917 0 011.83 0v2.521h2.64v-2.216a5.339 5.339 0 00-.43-2.175 5.577 5.577 0 00-1.34-1.83l-2.29-2.154a8.743 8.743 0 01-3.43.762 10.07 10.07 0 01.65 3.608v3.029a3.4 3.4 0 01-.68 2.033 2.866 2.866 0 01-1.39 1.006h4.44zm-5.66-21.823a9.381 9.381 0 01-3.01 5.428 47.54 47.54 0 013.78 3.619 3.907 3.907 0 00.64.163 5.723 5.723 0 001.05.081 5.422 5.422 0 003.73-1.444 4.715 4.715 0 000-6.972 5.426 5.426 0 00-3.73-1.444 5.8 5.8 0 00-1.59.224 4.381 4.381 0 00-.87.345z" fill-rule="evenodd" class="path-i25enfbew"/></svg>