<svg xmlns="http://www.w3.org/2000/svg" width="34.09" height="33.344" data-prefix="inoujyisl"><path d="M1.52 25.098C-1.12 20.511-.05 13.681 2.74 9.433a1.272 1.272 0 011.8-.372 1.31 1.31 0 01.55.807h.01c.05.243.11.467.16.682a13.3 13.3 0 011.17-2.816 13.518 13.518 0 016.48-5.962 1.3 1.3 0 011.69.779 1.369 1.369 0 01-.02 1.016c-.26.606-.48 1.2-.67 1.786a22.187 22.187 0 016.85-4.316c5.15-2 11.03-1.4 13.24 4.631a1.354 1.354 0 01-.76 1.732l-.13.043c-4.37 1.188-6.01 4.129-7.55 6.907-2.15 3.874-4.18 7.5-11.33 7.369a15.308 15.308 0 001.92.735 1.342 1.342 0 01.87 1.675 1.308 1.308 0 01-.65.8c-3.3 1.919-9.08 3.283-12.8 1.77a6.393 6.393 0 00-.76 5.041v.005h3.6a.807.807 0 010 1.613H1.79l-.11-.01a1.321 1.321 0 01-1.43-1.055 9.238 9.238 0 011.27-7.192zm9.57 8.257h13.6a.807.807 0 000-1.613h-13.6a.807.807 0 000 1.613zm-7.35-9.679c1.69 1.889 6.68.639 8.71.009a5.466 5.466 0 01-2.04-2.11c-.48-.949-.73-2.992 1.11-2.753 7.96 1.069 9.78-2.239 11.77-5.81 1.63-2.93 3.35-6.018 7.67-7.683-4.14-6.979-16.06.892-18.12 5.7a1.31 1.31 0 01-2.56-.424 26.149 26.149 0 01.7-4.463A11.839 11.839 0 008.7 9.058a8.351 8.351 0 00-1.02 6.186h-.01a1.345 1.345 0 01-.55 1.479 1.272 1.272 0 01-1.79-.391 30.556 30.556 0 01-1.73-2.755c-1.1 3.075-1.52 7.16.14 10.1z" fill-rule="evenodd" class="path-inylxc6tf"/></svg>