<svg xmlns="http://www.w3.org/2000/svg" width="35.78" height="36.093" data-prefix="i7de0j15s"><path d="M8.22 1.313q2.64 3.424 5.27 6.849c.02.029.05.058.08.1a3.182 3.182 0 01.52 1.1 3.383 3.383 0 01.08 1.348 3.492 3.492 0 01-.45 1.279l-.05.079a3.545 3.545 0 01-.85.915.444.444 0 01-.09.049c-.86.63-1.71 1.26-2.56 1.889a2.222 2.222 0 00.35 2.214 33.951 33.951 0 003.77 4.546 35.174 35.174 0 004.51 3.818 2.206 2.206 0 002.2.353c.64-.9 1.29-1.79 1.93-2.676a3.36 3.36 0 01.98-.925 3.267 3.267 0 011.26-.433c.02-.009.03-.009.05-.019a3.5 3.5 0 011.29.089c.03.01.05.01.08.019a3.312 3.312 0 011.12.58q3.39 2.657 6.79 5.314a1.4 1.4 0 00.11.1 3.355 3.355 0 01.81 1.022 3.4 3.4 0 01.37 1.417 3.434 3.434 0 01-.24 1.427 3.268 3.268 0 01-.83 1.191 9.318 9.318 0 01-1.62 1.24.328.328 0 01-.08.039 10.99 10.99 0 01-2.22 1.013 17.987 17.987 0 01-11.54-.265 28.967 28.967 0 01-11.11-7.1 29.292 29.292 0 01-7.05-11.2A18.524 18.524 0 01.84 5.034a11.4 11.4 0 011.04-2.3c.01 0 .01 0 .01-.01h-.01A10.658 10.658 0 013.1 1.081 3.336 3.336 0 014.29.254a.621.621 0 01.12-.039 3.191 3.191 0 011.3-.2 3.139 3.139 0 012.51 1.3zm3.1 8.54Q8.68 6.43 6.05 3.015v-.009a.641.641 0 00-.17-.158.056.056 0 01-.03-.019.664.664 0 00-.26-.06.716.716 0 00-.22.021.163.163 0 01-.04.019.811.811 0 00-.22.157 7.082 7.082 0 00-.87 1.181h-.01a9.657 9.657 0 00-.79 1.752 15.732 15.732 0 00.26 9.908 26.53 26.53 0 006.4 10.1 26.22 26.22 0 0010.02 6.454 15.358 15.358 0 009.82.256 8.161 8.161 0 001.68-.768.186.186 0 00.06-.039 6.915 6.915 0 001.18-.886.833.833 0 00.15-.2v-.019a.631.631 0 00.04-.256.691.691 0 00-.06-.266v-.01a1.528 1.528 0 00-.13-.147c-.02-.01-.03-.03-.05-.04q-3.4-2.672-6.79-5.323a.762.762 0 00-.18-.1c-.01 0-.03-.01-.04-.01a.411.411 0 00-.22-.01h-.02a.535.535 0 00-.23.078h-.01a.459.459 0 00-.17.168c-.7.955-1.39 1.919-2.08 2.863a1.264 1.264 0 01-.45.433 4.689 4.689 0 01-5.38-.334 37.308 37.308 0 01-4.89-4.123 36.256 36.256 0 01-4.08-4.92 4.787 4.787 0 01-.34-5.441 1.319 1.319 0 01.37-.4c.93-.688 1.87-1.377 2.81-2.056a.388.388 0 01.1-.079l.14-.137a.066.066 0 01.02-.039.6.6 0 00.07-.237.672.672 0 000-.246.44.44 0 00-.08-.167c-.01-.02-.03-.039-.04-.06z" fill-rule="evenodd" class="path-i3nlssgxv"/></svg>