<svg xmlns="http://www.w3.org/2000/svg" width="92.47" height="92.437"><path d="M48.44 10.506a35.76 35.76 0 0133.48 33.5h8.33a2.2 2.2 0 110 4.4h-8.33A35.7 35.7 0 0148.44 81.9v8.355a2.2 2.2 0 01-4.4 0V81.9a35.66 35.66 0 01-33.46-33.494H2.22a2.2 2.2 0 110-4.4h8.36a35.721 35.721 0 0133.46-33.5V2.178a2.2 2.2 0 014.4 0v8.328zm-2.19 32.039a3.67 3.67 0 11-3.7 3.67 3.685 3.685 0 013.7-3.67zm0-13.456a17.244 17.244 0 0112.1 5 17.17 17.17 0 010 24.2v.027a17.085 17.085 0 01-24.2 0v-.027a17.1 17.1 0 010-24.2 17.119 17.119 0 0112.1-5zm8.97 8.121a12.628 12.628 0 00-8.97-3.723 12.757 12.757 0 00-9.01 3.723 12.6 12.6 0 00-3.72 9 12.657 12.657 0 0012.73 12.7 12.615 12.615 0 008.97-3.694 12.812 12.812 0 003.75-9 12.665 12.665 0 00-3.75-9zm11.09-11.087a28.395 28.395 0 108.33 20.092 28.2 28.2 0 00-8.33-20.092z" fill="#fff" fill-rule="evenodd"/></svg>