<svg xmlns="http://www.w3.org/2000/svg" width="92.47" height="92.437" viewBox="0 0 92.47 92.437">
  <defs>
    <style>
      .cls-1 {
        fill: #fff;
        fill-rule: evenodd;
      }
    </style>
  </defs>
  <path id="services1.svg" class="cls-1" d="M1628.35,724.475a35.76,35.76,0,0,1,33.48,33.5h8.33a2.2,2.2,0,1,1,0,4.4h-8.33a35.7,35.7,0,0,1-33.48,33.494v8.355a2.2,2.2,0,0,1-4.4,0v-8.355a35.66,35.66,0,0,1-33.46-33.494h-8.36a2.2,2.2,0,1,1,0-4.4h8.36a35.721,35.721,0,0,1,33.46-33.5v-8.328a2.2,2.2,0,0,1,4.4,0v8.328h0Zm-2.19,32.039a3.67,3.67,0,1,1-3.7,3.67,3.685,3.685,0,0,1,3.7-3.67h0Zm0-13.456a17.244,17.244,0,0,1,12.1,5h0a17.17,17.17,0,0,1,0,24.2v0.027a17.085,17.085,0,0,1-24.2,0v-0.027a17.1,17.1,0,0,1,0-24.2h0a17.119,17.119,0,0,1,12.1-5h0Zm8.97,8.121a12.628,12.628,0,0,0-8.97-3.723,12.757,12.757,0,0,0-9.01,3.723,12.6,12.6,0,0,0-3.72,9,12.657,12.657,0,0,0,12.73,12.7,12.615,12.615,0,0,0,8.97-3.694,12.812,12.812,0,0,0,3.75-9,12.665,12.665,0,0,0-3.75-9h0Zm11.09-11.087a28.395,28.395,0,1,0,8.33,20.092,28.2,28.2,0,0,0-8.33-20.092h0Z" transform="translate(-1579.91 -713.969)"/>
</svg>

