<svg xmlns="http://www.w3.org/2000/svg" width="66" height="80"><path d="M32.99 62.985a3.116 3.116 0 010 6.174 3.121 3.121 0 010-6.174zM13.77 12.593a3.094 3.094 0 11-2.68 3.077 2.9 2.9 0 012.68-3.077zm38.34 0a3.094 3.094 0 010 6.132 3.1 3.1 0 010-6.132zm-19.1 45.482A45.748 45.748 0 0043 43.911a60 60 0 005.18-18.944c-.51-.545-.96-1.091-1.46-1.7l-.02-.02a35.2 35.2 0 01-1.34-1.768l-24.71-.022a16.7 16.7 0 01-1.36 1.81 31.47 31.47 0 01-1.46 1.7 59.852 59.852 0 005.18 18.922 46.041 46.041 0 0010 14.186zm12.84-12.419a49.675 49.675 0 01-11.84 16.193l-.04.045a1.452 1.452 0 01-1.93 0 49.572 49.572 0 01-11.88-16.26 64.438 64.438 0 01-5.62-21.125 2.118 2.118 0 01.55-1.7 22.183 22.183 0 001.84-2.007l.02-.022c.55-.7 1.09-1.439 1.6-2.226a1.542 1.542 0 011.31-.787h26.29a1.58 1.58 0 011.28.742c.51.787 1.08 1.574 1.63 2.271h.02a21.131 21.131 0 001.84 2.029h-.02a2.025 2.025 0 01.57 1.593 65.05 65.05 0 01-5.62 21.257zM33.01 73.5c17.58-10.432 27.64-32.824 27.64-55.172v-1.92a13.437 13.437 0 01-8.16-10.257H13.54a13.533 13.533 0 01-8.18 10.257l-.02 1.92c0 22.348 10.1 44.74 27.67 55.172zm1.19 6.154a2.267 2.267 0 01-2.35.043C11.77 68.59-.01 43.491-.01 18.328c0-.568.02-1.31.06-2.313 0-.784.04-1.526.07-2.181a2.914 2.914 0 012.36-2.97c3.37-.458 5.95-3.8 5.99-7.7V3.1A2.933 2.933 0 0111.15 0h43.69a2.921 2.921 0 012.7 3.1c0 3.929 2.56 7.29 6 7.768a2.933 2.933 0 012.35 2.86c.03.678.07 1.44.07 2.291.04 1 .04 1.745.04 2.313 0 25.141-11.76 50.217-31.8 61.326z" fill="#fff" fill-rule="evenodd"/></svg>