<svg xmlns="http://www.w3.org/2000/svg" width="78.97" height="92"><path d="M78.88 78.376a2.087 2.087 0 01-2.59 1.52L62 76.043l-3.83 14.35a2.3 2.3 0 01-1.01 1.328 2.119 2.119 0 01-2.9-.8L43.4 72.066a32.667 32.667 0 01-3.91.23 33.252 33.252 0 01-3.93-.23L24.75 90.934a2.14 2.14 0 01-3.93-.536l-3.81-14.35L2.7 79.9a2.125 2.125 0 01-2.61-1.52 2.033 2.033 0 01.3-1.772l10.58-18.447a35.955 35.955 0 1157.05 0L78.6 76.6a2.06 2.06 0 01.28 1.776zM6.61 74.384l11.29-3.036.05-.026a2.135 2.135 0 012.61 1.518l3.05 11.43 7.46-12.974a36.03 36.03 0 01-17-9.591l-.13-.128zm61.71-38.246a29.03 29.03 0 00-8.45-20.485 28.686 28.686 0 00-40.73 0 28.882 28.882 0 1049.18 20.485zm-3.27 25.439l-.13.128a36.031 36.031 0 01-17.03 9.591l7.49 12.974 3.02-11.43a2.149 2.149 0 012.61-1.518l.05.026 11.35 3.036zM54.64 51.359a21.534 21.534 0 110-30.465 21.638 21.638 0 010 30.465zM51.6 23.943a17.1 17.1 0 00-24.24 0 17.295 17.295 0 000 24.367 17.1 17.1 0 0024.24 0 17.295 17.295 0 000-24.367zM38.26 45l-3.08-2.926L29 36.22l3.09-2.926 6.17 5.852 9.65-9.143L51 32.929l-9.65 9.143z" fill="#fff" fill-rule="evenodd"/></svg>